{
    "asset" : {
        "generator" : "Khronos glTF Blender I/O v3.3.32",
        "version" : "2.0"
    },
    "extensionsUsed" : [
        "KHR_materials_transmission",
        "KHR_materials_specular"
    ],
    "scene" : 0,
    "scenes" : [
        {
            "name" : "Scene",
            "nodes" : [
                0
            ]
        }
    ],
    "nodes" : [
        {
            "mesh" : 0,
            "name" : "11805_airplane_v2_L2",
            "rotation" : [
                -0.025015119463205338,
                0,
                0,
                0.9996870756149292
            ],
            "scale" : [
                0.0005289491964504123,
                0.0005289491964504123,
                0.0005289491964504123
            ]
        }
    ],
    "materials" : [
        {
            "doubleSided" : true,
            "extensions" : {
                "KHR_materials_transmission" : {
                    "transmissionFactor" : 1
                },
                "KHR_materials_specular" : {
                    "specularColorTexture" : {
                        "index" : 0
                    },
                    "specularColorFactor" : [
                        1.0151515007019043,
                        1.0340908765792847,
                        1.212389349937439
                    ]
                }
            },
            "name" : "airplane_body",
            "pbrMetallicRoughness" : {
                "baseColorTexture" : {
                    "index" : 1
                },
                "metallicFactor" : 0,
                "roughnessFactor" : 0.8585786819458008
            }
        },
        {
            "doubleSided" : true,
            "extensions" : {
                "KHR_materials_transmission" : {
                    "transmissionFactor" : 1
                },
                "KHR_materials_specular" : {
                    "specularColorTexture" : {
                        "index" : 2
                    },
                    "specularColorFactor" : [
                        1,
                        1.0461537837982178,
                        1.067039132118225
                    ]
                }
            },
            "name" : "airplane_wings",
            "pbrMetallicRoughness" : {
                "baseColorTexture" : {
                    "index" : 3
                },
                "metallicFactor" : 0,
                "roughnessFactor" : 0.8585786819458008
            }
        }
    ],
    "meshes" : [
        {
            "name" : "11805_airplane_v2_L2",
            "primitives" : [
                {
                    "attributes" : {
                        "POSITION" : 0,
                        "NORMAL" : 1,
                        "TEXCOORD_0" : 2
                    },
                    "indices" : 3,
                    "material" : 0
                },
                {
                    "attributes" : {
                        "POSITION" : 4,
                        "NORMAL" : 5,
                        "TEXCOORD_0" : 6
                    },
                    "indices" : 7,
                    "material" : 1
                }
            ]
        }
    ],
    "textures" : [
        {
            "sampler" : 0,
            "source" : 0
        },
        {
            "sampler" : 0,
            "source" : 1
        },
        {
            "sampler" : 0,
            "source" : 2
        },
        {
            "sampler" : 0,
            "source" : 3
        }
    ],
    "images" : [
        {
            "mimeType" : "image/png",
            "name" : "Image",
            "uri" : "Image.png"
        },
        {
            "mimeType" : "image/png",
            "name" : "airplane_body_diffuse_v1",
            "uri" : "airplane_body_diffuse_v1.png"
        },
        {
            "mimeType" : "image/png",
            "name" : "Image",
            "uri" : "Image-1.png"
        },
        {
            "mimeType" : "image/png",
            "name" : "airplane_wings_diffuse_v1",
            "uri" : "airplane_wings_diffuse_v1.png"
        }
    ],
    "accessors" : [
        {
            "bufferView" : 0,
            "componentType" : 5126,
            "count" : 38952,
            "max" : [
                319.1271057128906,
                499.906005859375,
                749.0983276367188
            ],
            "min" : [
                -322.0859069824219,
                29.211000442504883,
                -753.068115234375
            ],
            "type" : "VEC3"
        },
        {
            "bufferView" : 1,
            "componentType" : 5126,
            "count" : 38952,
            "type" : "VEC3"
        },
        {
            "bufferView" : 2,
            "componentType" : 5126,
            "count" : 38952,
            "type" : "VEC2"
        },
        {
            "bufferView" : 3,
            "componentType" : 5123,
            "count" : 177012,
            "type" : "SCALAR"
        },
        {
            "bufferView" : 4,
            "componentType" : 5126,
            "count" : 27102,
            "max" : [
                786.957275390625,
                242.61630249023438,
                400.31671142578125
            ],
            "min" : [
                -789.9151000976562,
                74.7311019897461,
                -165.9241943359375
            ],
            "type" : "VEC3"
        },
        {
            "bufferView" : 5,
            "componentType" : 5126,
            "count" : 27102,
            "type" : "VEC3"
        },
        {
            "bufferView" : 6,
            "componentType" : 5126,
            "count" : 27102,
            "type" : "VEC2"
        },
        {
            "bufferView" : 7,
            "componentType" : 5123,
            "count" : 113712,
            "type" : "SCALAR"
        }
    ],
    "bufferViews" : [
        {
            "buffer" : 0,
            "byteLength" : 467424,
            "byteOffset" : 0,
            "target" : 34962
        },
        {
            "buffer" : 0,
            "byteLength" : 467424,
            "byteOffset" : 467424,
            "target" : 34962
        },
        {
            "buffer" : 0,
            "byteLength" : 311616,
            "byteOffset" : 934848,
            "target" : 34962
        },
        {
            "buffer" : 0,
            "byteLength" : 354024,
            "byteOffset" : 1246464,
            "target" : 34963
        },
        {
            "buffer" : 0,
            "byteLength" : 325224,
            "byteOffset" : 1600488,
            "target" : 34962
        },
        {
            "buffer" : 0,
            "byteLength" : 325224,
            "byteOffset" : 1925712,
            "target" : 34962
        },
        {
            "buffer" : 0,
            "byteLength" : 216816,
            "byteOffset" : 2250936,
            "target" : 34962
        },
        {
            "buffer" : 0,
            "byteLength" : 227424,
            "byteOffset" : 2467752,
            "target" : 34963
        }
    ],
    "samplers" : [
        {
            "magFilter" : 9729,
            "minFilter" : 9987
        }
    ],
    "buffers" : [
        {
            "byteLength" : 2695176,
            "uri" : "untitled.bin"
        }
    ]
}
